<svg aria-hidden="true" style="position:absolute;width:0;height:0" xmlns="http://www.w3.org/2000/svg" overflow="hidden">
<defs>
<symbol id="icon-facebook" viewBox="0 0 32 32">
<path d="M19 6h5V0h-5c-3.86 0-7 3.14-7 7v3H8v6h4v16h6V16h5l1-6h-6V7c0-.542.458-1 1-1z"/>
</symbol>
<symbol id="icon-instagram" viewBox="0 0 32 32">
<path d="M16 2.881c4.275 0 4.781.019 6.462.094 1.563.069 2.406.331 2.969.55.744.288 1.281.638 1.837 1.194.563.563.906 1.094 1.2 1.838.219.563.481 1.412.55 2.969.075 1.688.094 2.194.094 6.463s-.019 4.781-.094 6.463c-.069 1.563-.331 2.406-.55 2.969-.288.744-.637 1.281-1.194 1.837-.563.563-1.094.906-1.837 1.2-.563.219-1.413.481-2.969.55-1.688.075-2.194.094-6.463.094s-4.781-.019-6.463-.094c-1.563-.069-2.406-.331-2.969-.55-.744-.288-1.281-.637-1.838-1.194-.563-.563-.906-1.094-1.2-1.837-.219-.563-.481-1.413-.55-2.969-.075-1.688-.094-2.194-.094-6.463s.019-4.781.094-6.463c.069-1.563.331-2.406.55-2.969.288-.744.638-1.281 1.194-1.838.563-.563 1.094-.906 1.838-1.2.563-.219 1.412-.481 2.969-.55 1.681-.075 2.188-.094 6.463-.094zM16 0c-4.344 0-4.887.019-6.594.094-1.7.075-2.869.35-3.881.744-1.056.412-1.95.956-2.837 1.85-.894.888-1.438 1.781-1.85 2.831C.444 6.538.169 7.7.094 9.4.019 11.113 0 11.656 0 16s.019 4.887.094 6.594c.075 1.7.35 2.869.744 3.881.413 1.056.956 1.95 1.85 2.837.887.887 1.781 1.438 2.831 1.844 1.019.394 2.181.669 3.881.744 1.706.075 2.25.094 6.594.094s4.888-.019 6.594-.094c1.7-.075 2.869-.35 3.881-.744 1.05-.406 1.944-.956 2.831-1.844s1.438-1.781 1.844-2.831c.394-1.019.669-2.181.744-3.881.075-1.706.094-2.25.094-6.594s-.019-4.887-.094-6.594c-.075-1.7-.35-2.869-.744-3.881-.394-1.063-.938-1.956-1.831-2.844-.887-.887-1.781-1.438-2.831-1.844-1.019-.394-2.181-.669-3.881-.744-1.712-.081-2.256-.1-6.6-.1z"/>
<path d="M16 7.781c-4.537 0-8.219 3.681-8.219 8.219s3.681 8.219 8.219 8.219 8.219-3.681 8.219-8.219S20.538 7.781 16 7.781zm0 13.55c-2.944 0-5.331-2.387-5.331-5.331s2.387-5.331 5.331-5.331c2.944 0 5.331 2.387 5.331 5.331S18.944 21.331 16 21.331zM26.462 7.456c0 1.06-.859 1.919-1.919 1.919s-1.919-.859-1.919-1.919.859-1.919 1.919-1.919 1.919.859 1.919 1.919z"/>
</symbol>
<symbol id="icon-linkedin" viewBox="0 0 32 32">
<path d="M12 12h5.535v2.837h.079c.77-1.381 2.655-2.837 5.464-2.837C28.92 12 30 15.637 30 20.367V30h-5.769v-8.54c0-2.037-.042-4.657-3.001-4.657-3.005 0-3.463 2.218-3.463 4.509V30H12V12zM2 12h6v18H2V12zm6-5c0 1.657-1.343 3-3 3S2 8.657 2 7s1.343-3 3-3 3 1.343 3 3z"/>
</symbol>
<symbol id="icon-twitter" viewBox="0 0 32 32">
<path d="M32 7.075c-1.175.525-2.444.875-3.769 1.031 1.356-.813 2.394-2.1 2.887-3.631-1.269.75-2.675 1.3-4.169 1.594C25.749 4.794 24.043 4 22.155 4c-3.625 0-6.563 2.938-6.563 6.563 0 .512.056 1.012.169 1.494-5.456-.275-10.294-2.888-13.531-6.862-.563.969-.887 2.1-.887 3.3 0 2.275 1.156 4.287 2.919 5.463-1.075-.031-2.087-.331-2.975-.819v.081c0 3.181 2.263 5.838 5.269 6.437-.55.15-1.131.231-1.731.231-.425 0-.831-.044-1.237-.119.838 2.606 3.263 4.506 6.131 4.563-2.25 1.762-5.075 2.813-8.156 2.813-.531 0-1.05-.031-1.569-.094 2.913 1.869 6.362 2.95 10.069 2.95 12.075 0 18.681-10.006 18.681-18.681 0-.287-.006-.569-.019-.85 1.281-.919 2.394-2.075 3.275-3.394z"/>
</symbol>
<symbol id="icon-facebook1" viewBox="0 0 32 32">
<path d="M19 6h5V0h-5c-3.86 0-7 3.14-7 7v3H8v6h4v16h6V16h5l1-6h-6V7c0-.542.458-1 1-1z"/>
</symbol>
<symbol id="icon-instagram1" viewBox="0 0 32 32">
<path d="M16 2.881c4.275 0 4.781.019 6.462.094 1.563.069 2.406.331 2.969.55.744.288 1.281.638 1.837 1.194.563.563.906 1.094 1.2 1.838.219.563.481 1.412.55 2.969.075 1.688.094 2.194.094 6.463s-.019 4.781-.094 6.463c-.069 1.563-.331 2.406-.55 2.969-.288.744-.637 1.281-1.194 1.837-.563.563-1.094.906-1.837 1.2-.563.219-1.413.481-2.969.55-1.688.075-2.194.094-6.463.094s-4.781-.019-6.463-.094c-1.563-.069-2.406-.331-2.969-.55-.744-.288-1.281-.637-1.838-1.194-.563-.563-.906-1.094-1.2-1.837-.219-.563-.481-1.413-.55-2.969-.075-1.688-.094-2.194-.094-6.463s.019-4.781.094-6.463c.069-1.563.331-2.406.55-2.969.288-.744.638-1.281 1.194-1.838.563-.563 1.094-.906 1.838-1.2.563-.219 1.412-.481 2.969-.55 1.681-.075 2.188-.094 6.463-.094zM16 0c-4.344 0-4.887.019-6.594.094-1.7.075-2.869.35-3.881.744-1.056.412-1.95.956-2.837 1.85-.894.888-1.438 1.781-1.85 2.831C.444 6.538.169 7.7.094 9.4.019 11.113 0 11.656 0 16s.019 4.887.094 6.594c.075 1.7.35 2.869.744 3.881.413 1.056.956 1.95 1.85 2.837.887.887 1.781 1.438 2.831 1.844 1.019.394 2.181.669 3.881.744 1.706.075 2.25.094 6.594.094s4.888-.019 6.594-.094c1.7-.075 2.869-.35 3.881-.744 1.05-.406 1.944-.956 2.831-1.844s1.438-1.781 1.844-2.831c.394-1.019.669-2.181.744-3.881.075-1.706.094-2.25.094-6.594s-.019-4.887-.094-6.594c-.075-1.7-.35-2.869-.744-3.881-.394-1.063-.938-1.956-1.831-2.844-.887-.887-1.781-1.438-2.831-1.844-1.019-.394-2.181-.669-3.881-.744-1.712-.081-2.256-.1-6.6-.1z"/>
<path d="M16 7.781c-4.537 0-8.219 3.681-8.219 8.219s3.681 8.219 8.219 8.219 8.219-3.681 8.219-8.219c0-4.537-3.681-8.219-8.219-8.219zm0 13.55c-2.944 0-5.331-2.387-5.331-5.331s2.387-5.331 5.331-5.331c2.944 0 5.331 2.387 5.331 5.331S18.944 21.331 16 21.331zM26.462 7.456c0 1.06-.859 1.919-1.919 1.919s-1.919-.859-1.919-1.919.859-1.919 1.919-1.919 1.919.859 1.919 1.919z"/>
</symbol>
<symbol id="icon-mail" viewBox="0 0 43 32">
<path d="M38.667 0h-34.667c-2.206 0-4 1.675-4 3.734v22.404c0 2.059 1.794 3.734 4 3.734h34.667c2.206 0 4-1.675 4-3.734v-22.404c0-2.059-1.794-3.734-4-3.734zM38.667 2.489c0.181 0 0.353 0.035 0.511 0.096l-17.844 14.437-17.844-14.437c0.158-0.061 0.33-0.096 0.511-0.096h34.667zM38.667 27.383h-34.667c-0.736 0-1.333-0.558-1.333-1.245v-20.922l17.793 14.395c0.251 0.203 0.563 0.304 0.874 0.304s0.622-0.101 0.874-0.304l17.793-14.395v20.922c0 0.687-0.598 1.245-1.333 1.245z"></path>
</symbol>
<symbol id="icon-tele" viewBox="0 0 21 32">
<path d="M18.133 0h-14.933c-1.765 0-3.2 1.34-3.2 2.987v25.889c0 1.647 1.435 2.987 3.2 2.987h14.933c1.765 0 3.2-1.34 3.2-2.987v-25.889c0-1.647-1.435-2.987-3.2-2.987zM3.2 1.991h14.933c0.589 0 1.067 0.446 1.067 0.996v20.91h-17.067v-20.91c0-0.549 0.478-0.996 1.067-0.996zM18.133 29.872h-14.933c-0.589 0-1.067-0.446-1.067-0.996v-2.987h17.067v2.987c0 0.55-0.478 0.996-1.067 0.996z"></path>
</symbol>
<symbol id="icon-astronaut" viewBox="0 0 32 32">
<path fill="var(--color1, #2196f3)" d="M31.97 4.52a.53.53 0 00-.43-.36l-1.9-.28-.86-1.73c-.18-.36-.78-.36-.96 0l-.85 1.73-1.91.28a.54.54 0 00-.3.91l1.38 1.35-.32 1.9c-.04.2.05.4.21.52.17.12.38.14.56.04l1.71-.9 1.71.9a.54.54 0 00.78-.56l-.33-1.9 1.38-1.35c.15-.14.2-.35.14-.55zm-2.46 1.33a.53.53 0 00-.15.47l.19 1.12-1-.53a.53.53 0 00-.5 0l-1 .53.2-1.12a.53.53 0 00-.16-.47l-.81-.79 1.12-.16a.53.53 0 00.4-.3l.5-1 .5 1c.08.16.23.27.4.3l1.12.16-.8.8zM26.13 20.52h-1.06v1.07h1.06v-1.07zM26.13 22.66h-1.06v1.06h1.06v-1.06zM27.2 21.59h-1.07v1.07h1.07v-1.07zM25.07 21.59H24v1.07h1.07v-1.07zM22.4 26.39h-1.07v1.07h1.07v-1.07zM22.4 28.52h-1.07v1.07h1.07v-1.07zM23.47 27.46H22.4v1.06h1.07v-1.06zM21.33 27.46h-1.06v1.06h1.06v-1.06zM16 24.26h-1.07v1.06H16v-1.06zM16 26.39h-1.07v1.07H16v-1.07zM17.07 25.32H16v1.07h1.07v-1.07zM14.93 25.32h-1.06v1.07h1.06v-1.07zM5.87 6.12H4.8V7.2h1.07V6.12zM5.87 8.26H4.8v1.06h1.07V8.26zM6.93 7.19H5.87v1.07h1.06V7.19zM4.8 7.19H3.73v1.07H4.8V7.19z"/>
<path fill="var(--color2, #212121)" d="M24.71 14.16c-.28-.39-.7-.64-1.18-.7-.48-.07-.96.05-1.34.35l-1.26.96-1.9 1.41-1.35-.54A6.94 6.94 0 0014.83 2.4a6.96 6.96 0 00-6.96 6.93c0 1.39.42 2.68 1.12 3.76l-2.76-.02H6.2l-.16.03-.03.02h-.02l-3.24 1.6-1.89.9a1.78 1.78 0 00.93 3.3c.3.01.58-.06.84-.2l1.4-.74 2.26-1.17h1.35L2.2 22.2.86 23.55a1.65 1.65 0 000 2.35 1.67 1.67 0 002.36 0l1.31-1.3 1.74-1.3.9.89-1.76 1.75-1.34 1.34a1.65 1.65 0 000 2.36 1.67 1.67 0 002.36 0l3.48-3.47 1.01-1 .02-.02 5.17-5.66 3.47.5h.07c.07 0 .13-.02.2-.04l.04-.02.06-.03 3.21-2.13.03-.03.04-.03 1.27-1.19c.67-.62.76-1.63.22-2.36zM2.14 17.77a.71.71 0 01-.56.05.72.72 0 01-.21-1.26l1.31-.63.45 1.31-.99.53zm3.5-1.83l-1.55.8-.44-1.28 2.03-1-.04 1.48zm15.1-6.62c0 .92-.22 1.79-.6 2.56l-4.18-1.9a1.86 1.86 0 00-.8-1.39l1.47-4.86a5.88 5.88 0 014.1 5.6zm-11.8 0a5.89 5.89 0 016.65-5.81l-1.44 4.75h-.05a1.87 1.87 0 100 3.73c.7 0 1.3-.38 1.62-.95l3.86 1.76A5.9 5.9 0 018.94 9.32zm5.96.8a.8.8 0 01-1.6 0 .8.8 0 011.6 0zM2.46 25.15a.6.6 0 01-.85 0 .6.6 0 010-.85l.96-.95.85.84-.96.96zm3.22 3.73a.6.6 0 01-.86 0 .6.6 0 010-.84l.97-.96.85.85-.96.95zm3.48-3.47l-1.77 1.76-.85-.85 1.76-1.75c.05-.04.07-.09.1-.14l.02-.04c.02-.04.02-.08.03-.13l.01-.07-.02-.1c0-.04 0-.07-.02-.1a.55.55 0 00-.09-.14l-.02-.04-1.61-1.6-.06-.04a.5.5 0 00-.09-.05.51.51 0 00-.09-.04.5.5 0 00-.1-.02.5.5 0 00-.1 0l-.1.03a.48.48 0 00-.1.04l-.06.03-1.77 1.33-.9-.9 2.4-2.39 4.36 4.3-.93.91zm6.82-7.02h-.05a.56.56 0 00-.3.08.5.5 0 00-.08.06l-.04.03-4.7 5.15-4.33-4.26 2.84-2.82a.53.53 0 00-.38-.9H6.72l.03-1.6 3.1.02a6.95 6.95 0 006.26 1.98c.04.03.08.07.13.09l2.41.96.15.75.18.89-3-.43zm4.04.18l-.31-1.56 1.44-1.08.95 1.26-2.08 1.38zm3.75-2.83l-.83.79-.94-1.24.84-.64a.73.73 0 01.54-.14.72.72 0 01.4 1.23z"/>
<path fill="var(--color2, #212121)" d="M13.6 18.54l-2.14-2.13a.53.53 0 00-.75 0l-2.15 2.13a.54.54 0 000 .76l2.15 2.13a.54.54 0 00.75 0l2.14-2.13a.54.54 0 000-.76zm-2.52 1.76L9.7 18.92l1.38-1.38 1.39 1.38-1.39 1.38zM17.16 5.07l-.25 1.04c.07.01 1.73.45 1.73 2.15h1.07c0-2.02-1.66-2.97-2.55-3.19zM19.71 9.32h-1.07v1.07h1.07V9.32z"/>
</symbol>
<symbol id="icon-diagram" viewBox="0 0 32 32">
<path fill="var(--color1, #2196f3)" d="M14.93 14.96h1.06v4.8h-1.06v-4.8zM19.19 17.1h1.07v2.66h-1.07V17.1zM10.66 18.7h1.07v1.06h-1.07V18.7zM7.46 18.16h1.07v1.6H7.46v-1.6z"/>
<path fill="var(--color2, #212121)" d="M1.6 28.3h25.59c.88 0 1.6-.73 1.6-1.6v-2.14c0-.88-.72-1.6-1.6-1.6h-.54V9.66l3.03-2.86a1.6 1.6 0 10-.75-.76L26.65 8.2V6.97c0-.88-.71-1.6-1.6-1.6H3.73c-.88 0-1.6.72-1.6 1.6v16H1.6c-.88 0-1.6.7-1.6 1.6v2.12c0 .89.72 1.6 1.6 1.6zM30.38 4.83a.53.53 0 110 1.06.53.53 0 010-1.06zM3.2 6.97c0-.3.24-.53.53-.53h21.32c.3 0 .54.23.54.53V9.2l-1.07 1.01V8.03c0-.29-.24-.53-.53-.53H4.79c-.29 0-.53.24-.53.53v13.33c0 .3.24.53.54.53h19.19c.3 0 .53-.23.53-.53V11.7l1.07-1.01v12.28H3.19v-16zM8 13.9a1.6 1.6 0 101.1 2.75l1.86.93c.21.1.47.06.63-.12l3.94-4.44 3.87 2.9c.21.16.5.14.69-.03l3.36-3.2v8.14H5.33V8.57h18.12v2.66l-3.77 3.57-3.9-2.93a.53.53 0 00-.72.08l-4 4.49-1.49-.75c.02-.06.02-.13.02-.19 0-.88-.71-1.6-1.6-1.6zm.53 1.6a.53.53 0 11-1.07 0 .53.53 0 011.07 0zm3.2 8.53h5.33v.53c0 .3-.24.53-.53.53h-4.27a.53.53 0 01-.53-.53v-.53zm-10.66.53c0-.3.24-.53.53-.53h9.06v.53c0 .88.72 1.6 1.6 1.6h4.26c.89 0 1.6-.72 1.6-1.6v-.53h9.06c.3 0 .54.24.54.53v2.13c0 .3-.24.53-.53.53H1.59a.53.53 0 01-.52-.53v-2.13z"/>
</symbol>
<symbol id="icon-clock" viewBox="0 0 32 32">
<path fill="var(--color2, #212121)" d="M31.3 15.3a15.3 15.3 0 10-19.96 14.58l.18.03c.12 0 .24-.03.35-.1.13-.07.23-.2.28-.35L16 17.21a1.91 1.91 0 10-.84-3.63l-5.1-5.1a.64.64 0 00-.9.9l5.1 5.1c-.4.8-.17 1.77.53 2.31l-3.68 11.67a14.04 14.04 0 1110.57-.35l-.4-1.87a.64.64 0 00-1.04-.34l-3.84 3.42a.64.64 0 00.23 1.09l4.9 1.56a.64.64 0 00.82-.74l-.4-1.84A15.26 15.26 0 0031.3 15.3zM16 14.66a.64.64 0 110 1.28.64.64 0 010-1.28zm2.1 14.87l2.18-1.95.6 2.84-2.79-.9z"/>
<path fill="var(--color1, #2196f3)" d="M15.35 3.19v1.27a.64.64 0 101.28 0V3.19a.64.64 0 00-1.28 0zM3.88 14.66a.64.64 0 000 1.28h1.27a.64.64 0 100-1.28H3.88zM28.1 15.94a.64.64 0 100-1.28h-1.27a.64.64 0 000 1.28h1.28z"/>
</symbol>
<symbol id="icon-antenna" viewBox="0 0 32 32">
<path fill="var(--color2, #212121)" d="M30.77 22.1l-8.44-8.5.94-4.62c.24.1.5.14.75.14h.01a2.16 2.16 0 10-2-1.43l-4.97.6L8.97.16A.53.53 0 008.6 0a.53.53 0 00-.37.16l-1.51 1.5c-.2.2-.2.55 0 .75l.81.83a14.94 14.94 0 002.52 17.66c.05.04.1.08.15.1-.04.18-.05.36-.05.55v6.18h-6.4a2.67 2.67 0 00-2.67 2.67v1.07c0 .3.24.53.53.53h24.54c.29 0 .53-.24.53-.53V30.4c0-1.47-1.2-2.66-2.67-2.66h-6.4v-2.75a14.85 14.85 0 0010.09-1.46l.82.82a.53.53 0 00.75 0l1.51-1.5c.2-.2.2-.54 0-.75zM23.28 6.23a1.07 1.07 0 11.75 1.82 1.07 1.07 0 01-.75-1.82zm-1.26 3.5l-.6 2.95-1.17-1.18 1.78-1.76zm-.6-.9l-1.92 1.92L18 9.25l3.4-.41zM24 28.8c.89 0 1.6.72 1.6 1.6v.53H2.14v-.53c0-.88.71-1.6 1.6-1.6H24zm-7.46-2.13v1.06H11.2v-1.06h5.34zM11.2 25.6v-4.05c0-1.3 1.2-2.35 2.67-2.35s2.67 1.05 2.67 2.35v4.05H11.2zm6.4-1.7v-2.35c0-1.89-1.67-3.42-3.73-3.42a3.8 3.8 0 00-3.28 1.79A13.87 13.87 0 018.31 4.03l18.6 18.71a13.82 13.82 0 01-9.3 1.16zm11.3-.68L7.83 2.04l.75-.75 7.94 7.98 13.12 13.2-.76.75z"/>
<path fill="var(--color1, #2196f3)" d="M13.88 20.27a1.6 1.6 0 10-.01 3.2 1.6 1.6 0 100-3.2zm.37 1.98c-.1.1-.24.15-.38.15a.53.53 0 010-1.07.53.53 0 01.37.92z"/>
</symbol>
<symbol id="icon-Group" viewBox="0 0 153 32">
<path fill="var(--color1, #fff)" d="M11.11 21.33h-2.5v-10.1H3.75v10.1h-2.5V9.2h9.86v12.13zm2.7-4.59c0-.9.17-1.69.51-2.39s.84-1.24 1.48-1.62c.65-.39 1.4-.58 2.26-.58 1.22 0 2.21.37 2.98 1.12.77.74 1.2 1.75 1.29 3.03l.02.62c0 1.38-.39 2.5-1.16 3.33-.77.83-1.81 1.25-3.11 1.25s-2.34-.42-3.12-1.25a4.8 4.8 0 01-1.15-3.4v-.1zm2.4.18c0 .85.16 1.5.48 1.96.33.45.79.68 1.39.68a1.6 1.6 0 001.37-.67c.32-.45.49-1.17.49-2.15 0-.84-.17-1.49-.5-1.95s-.78-.69-1.38-.69c-.59 0-1.04.23-1.36.7-.33.45-.49 1.16-.49 2.12zm8.17 2.47c.54-.58.91-1.15 1.1-1.72s.3-1.36.33-2.4l.07-2.95h6.63v7.07h1.3v4.65h-2.4v-2.7h-5.35v2.7H23.6V19.4h.78zm2.84 0h2.9v-5.08h-1.88l-.02 1.08a8.1 8.1 0 01-1 4zm16.53 1.94h-2.41v-7.06h-3.02v7.06H35.9v-9.01h7.84v9.01zm8.3-9.01h2.4v9.01h-2.4v-5.56l-3.02 5.56h-2.41v-9.01h2.41v5.55l3.02-5.55zm9.03 7.24c.44 0 .8-.12 1.08-.37s.42-.57.43-.97h2.26c0 .6-.17 1.17-.5 1.68-.33.5-.78.9-1.35 1.18-.57.28-1.2.42-1.88.42-1.3 0-2.31-.4-3.05-1.23a4.88 4.88 0 01-1.12-3.4v-.15c0-1.4.37-2.5 1.1-3.33s1.76-1.24 3.05-1.24c1.13 0 2.03.32 2.7.97.69.63 1.04 1.49 1.05 2.55h-2.26a1.63 1.63 0 00-.43-1.13c-.28-.3-.65-.44-1.1-.44-.56 0-.99.2-1.28.62-.28.4-.42 1.06-.42 1.98v.25c0 .93.14 1.6.42 2s.72.6 1.3.6zm11.4 1.77c-.12-.21-.2-.48-.25-.8-.58.64-1.34.97-2.27.97-.89 0-1.62-.26-2.2-.77a2.47 2.47 0 01-.87-1.93c0-.96.35-1.69 1.06-2.2a5.26 5.26 0 013.07-.78h1.11v-.51c0-.42-.1-.75-.32-1s-.55-.38-1.01-.38c-.4 0-.73.1-.96.3a1 1 0 00-.34.8h-2.41c0-.53.16-1.01.48-1.45s.78-.8 1.37-1.05a4.93 4.93 0 011.98-.38c1.11 0 2 .28 2.65.84.65.56.98 1.34.98 2.35v3.91c0 .86.12 1.5.36 1.94v.14h-2.44zm-2-1.67c.36 0 .68-.08.98-.23.3-.17.53-.38.67-.65v-1.55h-.9c-1.2 0-1.85.42-1.92 1.25l-.01.15c0 .3.1.54.32.74s.5.29.86.29zm14.3-5.41h-2.9v7.08h-2.42v-7.08h-2.84v-1.93h8.15v1.93zm4.8.7h1.73c.78 0 1.46.14 2.05.4a2.97 2.97 0 011.83 2.82c0 .95-.35 1.71-1.06 2.3-.7.58-1.66.86-2.87.86h-4.09v-9.01h2.42v2.64zm0 1.94v2.52h1.72c.47 0 .84-.11 1.1-.33s.38-.53.38-.91c0-.4-.13-.7-.38-.93-.25-.23-.61-.35-1.1-.35h-1.71zm11.74 2.67c.45 0 .8-.12 1.08-.37s.43-.57.44-.97h2.25c0 .6-.17 1.17-.5 1.68-.32.5-.77.9-1.35 1.18-.56.28-1.19.42-1.88.42-1.29 0-2.3-.4-3.05-1.23a4.88 4.88 0 01-1.11-3.4v-.15c0-1.4.37-2.5 1.1-3.33s1.76-1.24 3.05-1.24c1.12 0 2.03.32 2.7.97.69.63 1.03 1.49 1.05 2.55h-2.26a1.63 1.63 0 00-.44-1.13c-.27-.3-.64-.44-1.1-.44-.56 0-.98.2-1.27.62-.28.4-.43 1.06-.43 1.98v.25c0 .93.15 1.6.43 2s.71.6 1.3.6zm13.7-7.24v9.01h-2.4v-3.11h-1.53l-1.74 3.11h-2.44l1.97-3.52a3 3 0 01-1.25-1.02 2.55 2.55 0 01-.44-1.46c0-.87.34-1.58 1.01-2.14a4.26 4.26 0 012.72-.87h4.1zm-4.06 4.21h1.65v-2.28h-1.56c-.43 0-.78.11-1.05.34-.26.22-.4.5-.4.82s.13.59.39.8c.25.21.58.32.97.32zM152.53 3.2l-25.6 14.4 8.18 3.03L147.73 8.8l-9.6 12.95h.01v7.05l4.58-5.35 5.81 2.15 4-22.4z"/>
</symbol>
<symbol id="icon-mailform" viewBox="0 0 43 32">
<path d="M37.333 0h-32c-2.187 0-4 1.813-4 4v24c0 2.187 1.813 4 4 4h32c2.187 0 4-1.813 4-4v-24c0-2.187-1.813-4-4-4zM36.533 8.507l-14.133 8.827c-0.303 0.19-0.672 0.303-1.067 0.303s-0.764-0.113-1.075-0.308l0.008 0.005-14.133-8.8c-0.546-0.292-0.911-0.858-0.911-1.51 0-0.943 0.764-1.707 1.707-1.707 0.383 0 0.737 0.126 1.022 0.339l-0.004-0.003 13.387 8.347 13.413-8.373c0.289-0.233 0.661-0.373 1.066-0.373 0.943 0 1.707 0.764 1.707 1.707 0 0.681-0.399 1.268-0.975 1.542l-0.010 0.004z"></path>
</symbol>
<symbol id="icon-nameform" viewBox="0 0 32 32">
<path d="M16 16c4.418 0 8-3.582 8-8s-3.582-8-8-8v0c-4.418 0-8 3.582-8 8s3.582 8 8 8v0zM16 20c-5.333 0-16 2.667-16 8v2c0 1.093 0.907 2 2 2h28c1.093 0 2-0.907 2-2v-2c0-5.333-10.667-8-16-8z"></path>
</symbol>
<symbol id="icon-phoneform" viewBox="0 0 32 32">
<path d="M27.429 20.846l-4.206-0.457c-1.006-0.137-2.011 0.229-2.72 0.914l-3.040 3.063c-4.718-2.435-8.468-6.185-10.838-10.764l-0.065-0.139 3.063-3.063c0.709-0.709 1.051-1.714 0.937-2.72l-0.457-4.16c-0.201-1.656-1.598-2.926-3.291-2.926-0.016 0-0.032 0-0.048 0l0.002-0h-2.834c-1.874 0-3.429 1.554-3.314 3.429 0.92 14.132 12.154 25.366 26.202 26.281l0.083 0.004c1.874 0.114 3.429-1.44 3.429-3.314v-2.857c0-1.691-1.234-3.086-2.903-3.291z"></path>
</symbol>
<symbol id="icon-Vectorname" viewBox="0 0 32 32">
<path d="M16 16c4.418 0 8-3.582 8-8s-3.582-8-8-8v0c-4.418 0-8 3.582-8 8s3.582 8 8 8v0zM16 20c-5.333 0-16 2.667-16 8v2c0 1.093 0.907 2 2 2h28c1.093 0 2-0.907 2-2v-2c0-5.333-10.667-8-16-8z"></path>
</symbol>
<symbol id="icon-Vectorpochta" viewBox="0 0 43 32">
<path d="M37.333 0h-32c-2.187 0-4 1.813-4 4v24c0 2.187 1.813 4 4 4h32c2.187 0 4-1.813 4-4v-24c0-2.187-1.813-4-4-4zM36.533 8.507l-14.133 8.827c-0.303 0.19-0.672 0.303-1.067 0.303s-0.764-0.113-1.075-0.308l0.008 0.005-14.133-8.8c-0.546-0.292-0.911-0.858-0.911-1.51 0-0.943 0.764-1.707 1.707-1.707 0.383 0 0.737 0.126 1.022 0.339l-0.004-0.003 13.387 8.347 13.413-8.373c0.289-0.233 0.661-0.373 1.066-0.373 0.943 0 1.707 0.764 1.707 1.707 0 0.681-0.399 1.268-0.975 1.542l-0.010 0.004z"></path>
</symbol>
<symbol id="icon-Vectortelephone" viewBox="0 0 32 32">
<path d="M27.429 20.846l-4.206-0.457c-1.006-0.137-2.011 0.229-2.72 0.914l-3.040 3.063c-4.718-2.435-8.468-6.185-10.838-10.764l-0.065-0.139 3.063-3.063c0.709-0.709 1.051-1.714 0.937-2.72l-0.457-4.16c-0.201-1.656-1.598-2.926-3.291-2.926-0.016 0-0.032 0-0.048 0l0.002-0h-2.834c-1.874 0-3.429 1.554-3.314 3.429 0.92 14.132 12.154 25.366 26.202 26.281l0.083 0.004c1.874 0.114 3.429-1.44 3.429-3.314v-2.857c0-1.691-1.234-3.086-2.903-3.291z"></path>
</symbol>
<symbol id="icon-icon-send" viewBox="0 0 32 32">
<path fill="#fff" style="fill: var(--color1, #fff)" d="M32 0l-32 18 10.227 3.788 15.773-14.788-11.998 16.186 0.010 0.004-0.012-0.004v8.814l5.735-6.691 7.265 2.691 5-28z"></path>
</symbol>
<symbol id="icon-close" viewBox="0 0 32 32">
<path d="M32 3.2l-3.2-3.2-12.8 12.8-12.8-12.8-3.2 3.2 12.8 12.8-12.8 12.8 3.2 3.2 12.8-12.8 12.8 12.8 3.2-3.2-12.8-12.8 12.8-12.8z"></path>
</symbol>
</defs>
</svg>